<svg id="Layer_1" data-name="Layer 1" xmlns="http://www.w3.org/2000/svg" xmlns:xlink="http://www.w3.org/1999/xlink" viewBox="0 0 107 107"><defs><style>.cls-1{fill:none;}.cls-2{clip-path:url(#clip-path);}.cls-3{fill:#f7f7fc;}.cls-4{fill:#8b88a5;}</style><clipPath id="clip-path"><rect class="cls-1" width="107" height="107"/></clipPath></defs><g class="cls-2"><g id="Art-_no_vendor_applications" data-name="Art- no vendor applications"><g id="art-no-results"><circle id="Ellipse_876" data-name="Ellipse 876" class="cls-3" cx="53.5" cy="53.5" r="53.5"/><g id="no_result" data-name="no result"><path class="cls-4" d="M79.15,53a2.35,2.35,0,0,1-.23.32,1,1,0,0,1-1.75-.49,3.33,3.33,0,0,1,0-.55V40.18H29.85v.63c0,9.85,0,19.7,0,29.56,0,2.46,1.27,3.88,3.88,3.84,6.11-.09,12.22,0,18.33,0H66.47c-.51-.51-.92-.94-1.34-1.35a1.18,1.18,0,0,1-.4-1.17.52.52,0,0,0-.1-.38c-.48-.51-1-1-1.48-1.52a3.91,3.91,0,0,0-.37.2A14.78,14.78,0,1,1,69.6,55.1a14.22,14.22,0,0,1-2,9.95c-.22.36-.2.57.11.83a8.11,8.11,0,0,1,.78.77,1.1,1.1,0,0,0,1.09.48c.26,0,.65.22.88.45,1.79,1.75,3.56,3.53,5.33,5.3.13.13.23.28.38.46a2.88,2.88,0,0,0,1-2.2V61.78a1,1,0,0,1,.75-1.06,1,1,0,0,1,1.14.52l.11.16V71.82A5.58,5.58,0,0,1,77.7,74.7l1.45,1.63v.6c-.21.25-.41.52-.64.75q-1.11,1.11-2.25,2.19c-.56.54-1.14,1-1.72,1.57h-.6c-.25-.21-.52-.41-.75-.64C71.77,79.41,70.35,78,69,76.6a1.37,1.37,0,0,0-1.06-.42H33.24a5.18,5.18,0,0,1-4.31-1.92,6,6,0,0,1-1.08-2.45V34.44a3,3,0,0,0,.1-.32,4.87,4.87,0,0,1,2.49-3.34,11,11,0,0,1,1.72-.64H74.84a2.18,2.18,0,0,0,.23.09,4.64,4.64,0,0,1,3.18,2.1,13.66,13.66,0,0,1,.9,2.11Zm-2-14.85V35.35A3,3,0,0,0,74,32.14H33a2.93,2.93,0,0,0-3.12,2.58c-.11,1.12,0,2.26,0,3.41ZM55,70.16A12.77,12.77,0,1,0,42.23,57.38,12.78,12.78,0,0,0,55,70.16Zm21.53,6.46-7-7L67.3,71.85l7,7.21ZM66.16,69.93l1.36-1.32-1.34-1.38-1.36,1.34Z"/><path class="cls-4" d="M79.15,57.49a1.18,1.18,0,0,1-1.06.69,1,1,0,0,1-.93-.84,1,1,0,0,1,1.78-.77,3.53,3.53,0,0,1,.21.32Z"/><path class="cls-4" d="M68.63,34.14h4.3c.75,0,1.22.41,1.21,1s-.47,1-1.21,1h-8.6c-.75,0-1.22-.41-1.21-1s.47-1,1.21-1Z"/><path class="cls-4" d="M33.84,34.15a1,1,0,0,1,1,1,1,1,0,1,1-1-1Z"/><path class="cls-4" d="M38.35,34.15a1,1,0,1,1,0,2,1,1,0,1,1,0-2Z"/><path class="cls-4" d="M42.85,36.14a1,1,0,1,1,0-2,1,1,0,1,1,0,2Z"/><path class="cls-4" d="M55,46.63A10.77,10.77,0,1,1,44.23,57.39,10.77,10.77,0,0,1,55,46.63Zm0,2a8.76,8.76,0,1,0,8.76,8.76A8.76,8.76,0,0,0,55,48.63Z"/></g></g></g></g></svg>