<svg xmlns="http://www.w3.org/2000/svg" xmlns:xlink="http://www.w3.org/1999/xlink" width="107" height="107" viewBox="0 0 107 107">
  <defs>
    <clipPath id="clip-Art-_issue_loading">
      <rect width="107" height="107"/>
    </clipPath>
  </defs>
  <g id="Art-_issue_loading" data-name="Art- issue loading" clip-path="url(#clip-Art-_issue_loading)">
    <g id="art-issue-loading" transform="translate(-715 -456)">
      <circle id="Ellipse_876" data-name="Ellipse 876" cx="53.5" cy="53.5" r="53.5" transform="translate(715 456)" fill="#fdf5f7"/>
      <g id="art-issue-loading-2" data-name="art-issue-loading" transform="translate(-126.104 6)">
        <path id="Path_23036" data-name="Path 23036" d="M.008,5.8c0-1.006-.035-1.856.038-2.746A3.354,3.354,0,0,1,1.537.548,3.1,3.1,0,0,1,3.086,0H32.061a8.751,8.751,0,0,1,.7.592q5.478,5.465,10.952,10.935c.51.506.51,1.029.51,1.9,0,1.754.01,3.153.01,4.972,0,1.072-.192,1.675-.883,1.68-.58,0-.929-.439-.931-1.2V14.067c0-.2-.016-.4-.028-.658H34.787a3.737,3.737,0,0,1-3.921-3.915c-.016-2.3,0-4.6,0-6.905V1.85H4.074a1.939,1.939,0,0,0-2.22,2.228v49.2a1.935,1.935,0,0,0,2.183,2.206H40.232a1.928,1.928,0,0,0,2.195-2.19V24.008a3.188,3.188,0,0,1,.021-.676.872.872,0,0,1,.959-.768.862.862,0,0,1,.857.814,3.453,3.453,0,0,1,.013.554V53.218c0,2.617-1.509,4.11-4.14,4.11h-1.7c-1.624,0-.711,0-1.838,0H4.186C1.491,57.335,0,55.84,0,53.131V7.65m41.692,3.877-.893.033L32.719,3.494v5.95a1.926,1.926,0,0,0,2.155,2.116h5.174Z" transform="translate(865.438 525.641) rotate(-90)" fill="#eb8096"/>
        <path id="Path_23037" data-name="Path 23037" d="M117.037,138.36a10.5,10.5,0,1,1-10.508,10.432,10.5,10.5,0,0,1,10.508-10.432Zm.067,1.853a8.647,8.647,0,1,0,8.548,8.878A8.663,8.663,0,0,0,117.1,140.213Z" transform="translate(787.844 354.648)" fill="#eb8096"/>
        <path id="Path_23038" data-name="Path 23038" d="M65.356,111.794H79.1a2.562,2.562,0,0,1,.73.064.834.834,0,0,1,.635.934.852.852,0,0,1-.771.822,3.476,3.476,0,0,1-.615.02h-27.5a2.538,2.538,0,0,1-.605-.033c-.344-.1-.674-.225-.728-.784a.813.813,0,0,1,.566-.95,2.379,2.379,0,0,1,.727-.079Q58.452,111.792,65.356,111.794Z" transform="translate(834.873 376.854)" fill="#eb8096"/>
        <path id="Path_23039" data-name="Path 23039" d="M65.215,283.063H51.466a3.06,3.06,0,0,1-.615-.021.917.917,0,0,1,0-1.807,2.943,2.943,0,0,1,.615-.021h27.5a3.663,3.663,0,0,1,.554.012.917.917,0,0,1,0,1.825,3.456,3.456,0,0,1-.554.013Z" transform="translate(835.004 235.289)" fill="#eb8096"/>
        <path id="Path_23040" data-name="Path 23040" d="M53.864,156.1c-.9,0-1.809.01-2.706,0-.689-.012-1.072-.35-1.079-.914s.365-.922,1.054-.927q2.738-.016,5.472,0c.692,0,1.059.353,1.049.932s-.39.9-1.085.908C55.668,156.11,54.765,156.1,53.864,156.1Z" transform="translate(835.012 341.371)" fill="#eb8096"/>
        <path id="Path_23041" data-name="Path 23041" d="M53.829,198.365H51.123c-.671,0-1.056-.363-1.044-.939a.917.917,0,0,1,1.026-.9q2.767-.015,5.534,0a.912.912,0,0,1,1.016.914c0,.569-.386.921-1.057.927C55.674,198.372,54.751,198.365,53.829,198.365Z" transform="translate(835.014 306.055)" fill="#eb8096"/>
        <path id="Path_23042" data-name="Path 23042" d="M53.944,238.9c.881,0,1.763-.012,2.644,0,.7.012,1.07.337,1.074.911s-.368.922-1.06.929q-2.736.02-5.47,0c-.682,0-1.056-.373-1.042-.945s.368-.883,1.028-.883C52.058,238.893,53,238.906,53.944,238.9Z" transform="translate(835.006 270.639)" fill="#eb8096"/>
        <path id="Path_23043" data-name="Path 23043" d="M164.727,164.086v-3.819c0-.717.363-1.151.922-1.138s.916.423.919,1.093q.015,3.849,0,7.7c0,.886-.735,1.411-1.361.96a1.413,1.413,0,0,1-.462-.978C164.694,166.632,164.727,165.355,164.727,164.086Z" transform="translate(739.225 337.295)" fill="#eb8096"/>
        <path id="Path_23044" data-name="Path 23044" d="M165.312,230.282a.911.911,0,1,1,.922-.878A.911.911,0,0,1,165.312,230.282Z" transform="translate(739.477 279.361)" fill="#eb8096"/>
      </g>
    </g>
  </g>
</svg>
